<svg id="eaC2iqtbUmv1" xmlns="http://www.w3.org/2000/svg" xmlns:xlink="http://www.w3.org/1999/xlink" viewBox="0 0 24 24" shape-rendering="geometricPrecision" text-rendering="geometricPrecision"><path d="M0,0h24v24h-24L0,0Z" fill="none"/><path d="M12,6c3.79,0,7.17,2.13,8.82,5.5C19.17,14.87,15.79,17,12,17s-7.17-2.13-8.82-5.5C4.83,8.13,8.21,6,12,6m0-2C7,4,2.73,7.11,1,11.5C2.73,15.89,7,19,12,19s9.27-3.11,11-7.5C21.27,7.11,17,4,12,4Zm0,5c1.38,0,2.5,1.12,2.5,2.5s-1.12,2.5-2.5,2.5-2.5-1.12-2.5-2.5s1.12-2.5,2.5-2.5m0-2C9.52,7,7.5,9.02,7.5,11.5s2.02,4.5,4.5,4.5s4.5-2.02,4.5-4.5-2.02-4.5-4.5-4.5Z" fill="#064a80"/></svg>